<svg version="1.2" xmlns="http://www.w3.org/2000/svg" viewBox="0 0 14 15" width="14" height="15"><style>.a{fill:#00fff0}</style><path fill-rule="evenodd" class="a" d="m0 7.7q0-1.8 0.6-3.3 0.7-1.4 1.7-2.3 1.1-0.9 2.3-1.4 1.2-0.4 2.4-0.4 1.2 0 2.4 0.4 1.2 0.5 2.2 1.4 1 0.9 1.7 2.3 0.6 1.5 0.6 3.2 0 1.8-0.7 3.3-0.6 1.5-1.6 2.3-1.1 0.9-2.3 1.4-1.2 0.4-2.4 0.4-1.2 0-2.4-0.4-1.2-0.5-2.3-1.4-1-0.8-1.6-2.3-0.6-1.4-0.6-3.2zm1.1 0q0 2.7 1.6 4.5 1.6 1.7 4.2 1.7 2.6 0 4.2-1.8 1.7-1.7 1.7-4.5 0-2.7-1.6-4.4-1.6-1.8-4.2-1.8-2.6 0-4.2 1.8-1.7 1.7-1.7 4.5zm3.6 3.8v-8q0-0.1 0.1-0.2 0.2-0.2 0.3-0.2h2.1q2.5 0 2.5 2.5 0 2-1.6 2.4l1.5 3.1q0 0.1 0 0.2 0 0.2-0.2 0.4-0.2 0.2-0.4 0.2-0.2 0-0.4-0.4l-1.6-3.3h-1.1v3.3q0 0.4-0.6 0.4-0.6 0-0.6-0.4zm1.2-4.3h1.3q1.3 0 1.3-1.4 0-1.5-1.3-1.5h-1.3z"/></svg>